<?xml version="1.0" encoding="iso-8859-1"?>
<!-- Generator: Adobe Illustrator 19.0.0, SVG Export Plug-In . SVG Version: 6.00 Build 0)  -->
<svg version="1.1" id="Layer_1" xmlns="http://www.w3.org/2000/svg" xmlns:xlink="http://www.w3.org/1999/xlink" x="0px" y="0px"
	 viewBox="0 0 512 512" style="enable-background:new 0 0 512 512;" xml:space="preserve">
<polygon style="fill:#F2EBD9;" points="447.006,124.677 471.718,64.663 447.327,40.272 387.313,64.984 "/>
<g>
	<path style="fill:#F2484B;" d="M350.352,238.66c-3.19-3.19-3.19-8.363,0-11.553l87.988-87.988L372.872,73.65l-87.988,87.988
		c-3.19,3.19-8.363,3.19-11.553,0l-11.554,11.554l77.023,77.023L350.352,238.66z"/>
	<path style="fill:#F2484B;" d="M23.497,423.022c-9.555,9.556-9.555,25.104,0,34.66l30.809,30.809c9.555,9.555,25.105,9.554,34.66,0
		l17.33-17.33l-65.469-65.469L23.497,423.022z"/>
	<path style="fill:#F2484B;" d="M161.647,273.32c3.19,3.19,3.19,8.363,0,11.554L52.381,394.14l65.469,65.469l109.266-109.266
		c3.19-3.19,8.363-3.19,11.553,0l11.553-11.553l-77.023-77.023L161.647,273.32z"/>
	<polygon style="fill:#F2484B;" points="478.457,48.296 488.791,23.199 463.694,33.533 	"/>
</g>
<rect x="71.166" y="386.356" transform="matrix(0.7071 -0.7071 0.7071 0.7071 -282.6924 182.819)" style="fill:#FFFFFF;" width="16.339" height="92.586"/>
<g>
	<path style="fill:#082947;" d="M284.883,161.638l87.988-87.988l65.469,65.469l-87.988,87.988c-3.19,3.19-3.19,8.363,0,11.553
		c1.595,1.595,3.686,2.393,5.776,2.393s4.182-0.797,5.776-2.393l93.766-93.766c0.193-0.193,0.375-0.394,0.547-0.605
		c0.138-0.169,0.264-0.345,0.387-0.522c0.029-0.042,0.062-0.081,0.09-0.123c0.317-0.475,0.578-0.974,0.785-1.491L511.365,11.29
		c1.256-3.049,0.554-6.555-1.778-8.887S503.75-0.63,500.7,0.625L369.834,54.511c-0.517,0.207-1.016,0.468-1.491,0.785
		c-0.024,0.015-0.046,0.035-0.069,0.051c-0.196,0.134-0.39,0.273-0.576,0.427c-0.12,0.098-0.231,0.207-0.344,0.312
		c-0.085,0.078-0.175,0.15-0.258,0.233c-0.005,0.005-93.765,93.766-93.765,93.766c-3.19,3.19-3.19,8.363,0,11.553
		C276.52,164.827,281.693,164.827,284.883,161.638z M447.327,40.272l24.391,24.391l-24.711,60.014l-59.693-59.693L447.327,40.272z
		 M478.457,48.296l-14.763-14.763l25.097-10.334L478.457,48.296z"/>
	<path style="fill:#082947;" d="M227.116,350.342L88.967,488.493c-9.555,9.554-25.105,9.555-34.66,0l-30.809-30.809
		c-9.555-9.556-9.555-25.104,0-34.66l17.33-17.33l11.553-11.553l109.266-109.266c3.19-3.19,3.19-8.363,0-11.553
		c-3.19-3.19-8.363-3.19-11.553,0L11.945,411.47c-15.926,15.926-15.926,41.841,0,57.767l30.809,30.809
		c7.964,7.964,18.424,11.945,28.884,11.945s20.92-3.981,28.884-11.945l138.15-138.15c3.19-3.19,3.19-8.363,0-11.553
		C235.48,347.152,230.307,347.152,227.116,350.342z"/>
</g>
<polygon style="fill:#F2EBD9;" points="124.686,64.984 64.672,40.272 40.282,64.663 64.994,124.677 "/>
<g>
	<path style="fill:#98D9D5;" d="M488.502,423.022l-17.33-17.33l-65.469,65.469l17.33,17.33c4.603,4.603,10.758,7.139,17.33,7.139
		c6.572,0,12.727-2.536,17.33-7.139l30.809-30.809C498.057,448.127,498.057,432.579,488.502,423.022z"/>
	
		<rect x="220.341" y="40.013" transform="matrix(-0.7071 0.7071 -0.7071 -0.7071 643.7097 266.6305)" style="fill:#98D9D5;" width="92.586" height="453.238"/>
	<polygon style="fill:#98D9D5;" points="48.305,33.533 23.209,23.199 33.542,48.296 	"/>
</g>
<rect x="386.362" y="424.485" transform="matrix(-0.7071 0.7071 -0.7071 -0.7071 1044.5211 432.6547)" style="fill:#FFFFFF;" width="92.586" height="16.339"/>
<path style="fill:#082947;" d="M500.055,411.47L144.904,56.319c-0.193-0.193-0.394-0.375-0.605-0.547
	c-0.163-0.134-0.334-0.255-0.505-0.375c-0.048-0.033-0.091-0.071-0.139-0.102c-0.216-0.144-0.438-0.276-0.663-0.396
	c-0.284-0.154-0.551-0.278-0.822-0.386L11.3,0.625C8.251-0.631,4.745,0.071,2.412,2.403S-0.621,8.24,0.635,11.29l53.886,130.865
	c0.207,0.516,0.468,1.016,0.784,1.49c0.028,0.042,0.062,0.082,0.09,0.123c0.123,0.176,0.247,0.353,0.387,0.522
	c0.172,0.21,0.354,0.412,0.547,0.605L173.2,261.767l77.023,77.023l161.257,161.255c7.69,7.689,17.948,11.924,28.884,11.924
	s21.194-4.235,28.884-11.924l30.809-30.809C515.981,453.31,515.981,427.396,500.055,411.47z M440.362,495.63
	c-6.573,0-12.727-2.536-17.33-7.139L73.659,139.118l65.469-65.469l349.374,349.374c9.555,9.556,9.555,25.104,0,34.66l-30.809,30.809
	C453.089,493.096,446.935,495.63,440.362,495.63z M64.672,40.272l60.014,24.711l-59.693,59.694L40.282,64.663L64.672,40.272z
	 M48.305,33.533L33.542,48.296L23.209,23.199L48.305,33.533z"/>
<g>
</g>
<g>
</g>
<g>
</g>
<g>
</g>
<g>
</g>
<g>
</g>
<g>
</g>
<g>
</g>
<g>
</g>
<g>
</g>
<g>
</g>
<g>
</g>
<g>
</g>
<g>
</g>
<g>
</g>
</svg>
