<?xml version="1.0" encoding="iso-8859-1"?>
<!-- Generator: Adobe Illustrator 19.0.0, SVG Export Plug-In . SVG Version: 6.00 Build 0)  -->
<svg version="1.1" id="Layer_1" xmlns="http://www.w3.org/2000/svg" xmlns:xlink="http://www.w3.org/1999/xlink" x="0px" y="0px"
	 viewBox="0 0 433.875 433.875" style="enable-background:new 0 0 433.875 433.875;" xml:space="preserve">
<g>
	<path style="fill:#2488FF;" d="M417.253,126.384l-36.955,15.307c18.074,43.636,18.074,91.698,0,135.333
		c-18.074,43.635-52.06,77.62-95.694,95.694c-43.636,18.074-91.698,18.074-135.332,0c-43.636-18.074-77.62-52.059-95.694-95.694
		c-28.862-69.681-9.699-147.468,42.152-196.397l-3.55-3.549L161.677,7.58H22.682l44.666,44.666
		c-21.652,20.602-38.946,45.698-50.726,74.139c-22.163,53.506-22.163,112.44,0,165.947c22.163,53.506,63.836,95.179,117.342,117.342
		c26.75,11.081,54.867,16.621,82.974,16.623c28.113,0.001,56.217-5.54,82.973-16.623c53.507-22.163,95.18-63.835,117.343-117.342
		S439.416,179.891,417.253,126.384z"/>
	<polygon style="fill:#005ECE;" points="92.179,77.077 161.677,146.574 161.677,7.58 	"/>
</g>
<g>
</g>
<g>
</g>
<g>
</g>
<g>
</g>
<g>
</g>
<g>
</g>
<g>
</g>
<g>
</g>
<g>
</g>
<g>
</g>
<g>
</g>
<g>
</g>
<g>
</g>
<g>
</g>
<g>
</g>
</svg>
