<?xml version="1.0" encoding="iso-8859-1"?>
<!-- Generator: Adobe Illustrator 19.0.0, SVG Export Plug-In . SVG Version: 6.00 Build 0)  -->
<svg version="1.1" id="Layer_1" xmlns="http://www.w3.org/2000/svg" xmlns:xlink="http://www.w3.org/1999/xlink" x="0px" y="0px"
	 viewBox="0 0 433.875 433.875" style="enable-background:new 0 0 433.875 433.875;" xml:space="preserve">
<g>
	<path style="fill:#2488FF;" d="M417.253,126.385c-11.781-28.441-29.074-53.538-50.726-74.139L411.193,7.58H272.198l69.497,69.498
		l-3.549,3.549c51.851,48.93,71.014,126.717,42.152,196.397c-18.074,43.635-52.059,77.62-95.694,95.694
		c-43.634,18.074-91.696,18.074-135.332,0c-43.635-18.074-77.62-52.059-95.694-95.694c-18.074-43.635-18.074-91.697,0-135.333
		l-36.955-15.307c-22.163,53.507-22.163,112.441,0,165.947s63.836,95.179,117.343,117.342
		c26.756,11.083,54.859,16.624,82.973,16.623c28.106-0.001,56.224-5.542,82.974-16.623c53.506-22.163,95.179-63.836,117.342-117.342
		C439.416,238.825,439.416,179.891,417.253,126.385z"/>
	<polygon style="fill:#005ECE;" points="272.198,7.58 272.198,146.574 341.696,77.077 	"/>
</g>
<g>
</g>
<g>
</g>
<g>
</g>
<g>
</g>
<g>
</g>
<g>
</g>
<g>
</g>
<g>
</g>
<g>
</g>
<g>
</g>
<g>
</g>
<g>
</g>
<g>
</g>
<g>
</g>
<g>
</g>
</svg>
